# xmcd
#
# Track frame offsets: 
#        150
#        20213
#        42492
#        57550
#        87741
#        103454
#        124156
#        142536
#
# Disc length: 2254 seconds
#
# Revision: 0
# Processed by: cddbd v1.5.1PL0 Copyright (c) Steve Scherf et al.
# Submitted via: ExactAudioCopy v0.95a4
#
DISCID=7808cc08
DTITLE=Muddy Waters - Electric Mud
DYEAR=1900
DGENRE=Blues
TTITLE0=I Just Want To Make Love To You
TTITLE1=I´M Your Hoochie Coochie Man
TTITLE2=Let´S Spend The Night Together
TTITLE3=She´S Alright
TTITLE4=Mannish Boy
TTITLE5=Herbert Harpers´Free Press News
TTITLE6=Tom Cat
TTITLE7=The Same Thing
EXTD=LP
EXTT0=
EXTT1=
EXTT2=
EXTT3=
EXTT4=
EXTT5=
EXTT6=
EXTT7=
PLAYORDER=
